{
    "header": {
      "name": "For Elise",
      "ppq": 480,
      "meta": [
        {
          "type": "copyrightNotice",
          "text": "(C) 2010 YAMAHA MUSIC MEDIA CORPORATION",
          "ticks": 0
        },
        {
          "type": "sequencerSpecific",
          "ticks": 0
        },
        {
          "type": "text",
          "text": "",
          "ticks": 0
        }
      ],
      "tempos": [
        {
          "ticks": 0,
          "bpm": 120
        },
        {
          "ticks": 3840,
          "bpm": 90.00009000009
        }
      ],
      "timeSignatures": [
        {
          "ticks": 0,
          "timeSignature": [
            4,
            4
          ],
          "measures": 0
        },
        {
          "ticks": 3840,
          "timeSignature": [
            3,
            4
          ],
          "measures": 2
        }
      ]
    },
    "tracks": [
      {
        "name": "For Elise",
        "channel": 0,
        "instrument": {
          "number": 0,
          "name": "acoustic grand piano",
          "family": "piano"
        },
        "notes": [
          {
            "time": 4,
            "midi": 32,
            "name": "G#1",
            "velocity": 0.3937007874015748,
            "duration": 0.013888875000000134,
            "ticks": 3840,
            "durationTicks": 10
          },
          {
            "time": 4.666666,
            "midi": 32,
            "name": "G#1",
            "velocity": 0.3937007874015748,
            "duration": 0.013888875000000134,
            "ticks": 4320,
            "durationTicks": 10
          },
          {
            "time": 5.333332,
            "midi": 32,
            "name": "G#1",
            "velocity": 0.3937007874015748,
            "duration": 0.013888874999999246,
            "ticks": 4800,
            "durationTicks": 10
          },
          {
            "time": 5.999998,
            "midi": 32,
            "name": "G#1",
            "velocity": 0.3937007874015748,
            "duration": 0.013888875000000134,
            "ticks": 5280,
            "durationTicks": 10
          },
          {
            "time": 6.666664,
            "midi": 32,
            "name": "G#1",
            "velocity": 0.3937007874015748,
            "duration": 0.013888875000000134,
            "ticks": 5760,
            "durationTicks": 10
          },
          {
            "time": 7.33333,
            "midi": 76,
            "name": "E5",
            "velocity": 0.5196850393700787,
            "duration": 0.34999965,
            "ticks": 6240,
            "durationTicks": 252
          },
          {
            "time": 7.666663,
            "midi": 75,
            "name": "D#5",
            "velocity": 0.5039370078740157,
            "duration": 0.33194411250000044,
            "ticks": 6480,
            "durationTicks": 239
          },
          {
            "time": 7.999995999999999,
            "midi": 76,
            "name": "E5",
            "velocity": 0.5196850393700787,
            "duration": 0.37638851250000016,
            "ticks": 6720,
            "durationTicks": 271
          },
          {
            "time": 8.333328999999999,
            "midi": 75,
            "name": "D#5",
            "velocity": 0.5669291338582677,
            "duration": 0.36388852500000013,
            "ticks": 6960,
            "durationTicks": 262
          },
          {
            "time": 8.666661999999999,
            "midi": 76,
            "name": "E5",
            "velocity": 0.6456692913385826,
            "duration": 0.3847218375000008,
            "ticks": 7200,
            "durationTicks": 277
          },
          {
            "time": 8.999995,
            "midi": 71,
            "name": "B4",
            "velocity": 0.6771653543307087,
            "duration": 0.3111107999999998,
            "ticks": 7440,
            "durationTicks": 224
          },
          {
            "time": 9.333328,
            "midi": 74,
            "name": "D5",
            "velocity": 0.6299212598425197,
            "duration": 0.33194411250000044,
            "ticks": 7680,
            "durationTicks": 239
          },
          {
            "time": 9.666661,
            "midi": 72,
            "name": "C5",
            "velocity": 0.5669291338582677,
            "duration": 0.3652774125000011,
            "ticks": 7920,
            "durationTicks": 263
          },
          {
            "time": 9.999994000000001,
            "midi": 69,
            "name": "A4",
            "velocity": 0.5669291338582677,
            "duration": 0.6763882124999974,
            "ticks": 8160,
            "durationTicks": 487
          },
          {
            "time": 9.999994000000001,
            "midi": 57,
            "name": "A3",
            "velocity": 0.3937007874015748,
            "duration": 0.711110399999999,
            "ticks": 8160,
            "durationTicks": 512
          },
          {
            "time": 10.66666,
            "midi": 52,
            "name": "E3",
            "velocity": 0.4251968503937008,
            "duration": 1.2361098750000004,
            "ticks": 8640,
            "durationTicks": 890
          },
          {
            "time": 10.999993,
            "midi": 60,
            "name": "C4",
            "velocity": 0.6535433070866141,
            "duration": 0.3499996500000009,
            "ticks": 8880,
            "durationTicks": 252
          },
          {
            "time": 11.333326,
            "midi": 64,
            "name": "E4",
            "velocity": 0.6220472440944882,
            "duration": 0.3097219125000006,
            "ticks": 9120,
            "durationTicks": 223
          },
          {
            "time": 11.666659,
            "midi": 69,
            "name": "A4",
            "velocity": 0.6692913385826772,
            "duration": 0.4013884875000002,
            "ticks": 9360,
            "durationTicks": 289
          },
          {
            "time": 11.999991999999999,
            "midi": 71,
            "name": "B4",
            "velocity": 0.6850393700787402,
            "duration": 0.6124993874999998,
            "ticks": 9600,
            "durationTicks": 441
          },
          {
            "time": 11.999991999999999,
            "midi": 56,
            "name": "G#3",
            "velocity": 0.4094488188976378,
            "duration": 0.7124992875,
            "ticks": 9600,
            "durationTicks": 513
          },
          {
            "time": 12.666658,
            "midi": 52,
            "name": "E3",
            "velocity": 0.4566929133858268,
            "duration": 1.2874987124999997,
            "ticks": 10080,
            "durationTicks": 927
          },
          {
            "time": 12.999991,
            "midi": 64,
            "name": "E4",
            "velocity": 0.5984251968503937,
            "duration": 0.3569440875000005,
            "ticks": 10320,
            "durationTicks": 257
          },
          {
            "time": 13.333324,
            "midi": 68,
            "name": "G#4",
            "velocity": 0.6771653543307087,
            "duration": 0.3652774125000011,
            "ticks": 10560,
            "durationTicks": 263
          },
          {
            "time": 13.666656999999999,
            "midi": 71,
            "name": "B4",
            "velocity": 0.6614173228346457,
            "duration": 0.36388852500000013,
            "ticks": 10800,
            "durationTicks": 262
          },
          {
            "time": 13.99999,
            "midi": 72,
            "name": "C5",
            "velocity": 0.6850393700787402,
            "duration": 0.6680548875000003,
            "ticks": 11040,
            "durationTicks": 481
          },
          {
            "time": 13.99999,
            "midi": 57,
            "name": "A3",
            "velocity": 0.3937007874015748,
            "duration": 0.6555548999999985,
            "ticks": 11040,
            "durationTicks": 472
          },
          {
            "time": 14.666656,
            "midi": 52,
            "name": "E3",
            "velocity": 0.4094488188976378,
            "duration": 1.2680542875,
            "ticks": 11520,
            "durationTicks": 913
          },
          {
            "time": 14.999989,
            "midi": 64,
            "name": "E4",
            "velocity": 0.6377952755905512,
            "duration": 0.27222195000000227,
            "ticks": 11760,
            "durationTicks": 196
          },
          {
            "time": 15.333321999999999,
            "midi": 76,
            "name": "E5",
            "velocity": 0.5196850393700787,
            "duration": 0.33611077499999986,
            "ticks": 12000,
            "durationTicks": 242
          },
          {
            "time": 15.666655,
            "midi": 75,
            "name": "D#5",
            "velocity": 0.5511811023622047,
            "duration": 0.3430552124999995,
            "ticks": 12240,
            "durationTicks": 247
          },
          {
            "time": 15.999988,
            "midi": 76,
            "name": "E5",
            "velocity": 0.5984251968503937,
            "duration": 0.3444440999999987,
            "ticks": 12480,
            "durationTicks": 248
          },
          {
            "time": 16.333320999999998,
            "midi": 75,
            "name": "D#5",
            "velocity": 0.6614173228346457,
            "duration": 0.3541663125000021,
            "ticks": 12720,
            "durationTicks": 255
          },
          {
            "time": 16.666654,
            "midi": 76,
            "name": "E5",
            "velocity": 0.6850393700787402,
            "duration": 0.34722187499999535,
            "ticks": 12960,
            "durationTicks": 250
          },
          {
            "time": 16.999986999999997,
            "midi": 71,
            "name": "B4",
            "velocity": 0.6456692913385826,
            "duration": 0.3499996500000009,
            "ticks": 13200,
            "durationTicks": 252
          },
          {
            "time": 17.33332,
            "midi": 74,
            "name": "D5",
            "velocity": 0.6377952755905512,
            "duration": 0.3319441124999969,
            "ticks": 13440,
            "durationTicks": 239
          },
          {
            "time": 17.666653,
            "midi": 72,
            "name": "C5",
            "velocity": 0.5748031496062992,
            "duration": 0.3749996249999974,
            "ticks": 13680,
            "durationTicks": 270
          },
          {
            "time": 17.999986,
            "midi": 69,
            "name": "A4",
            "velocity": 0.5511811023622047,
            "duration": 0.6624993374999981,
            "ticks": 13920,
            "durationTicks": 477
          },
          {
            "time": 17.999986,
            "midi": 57,
            "name": "A3",
            "velocity": 0.3779527559055118,
            "duration": 0.6319438125000012,
            "ticks": 13920,
            "durationTicks": 455
          },
          {
            "time": 18.666652,
            "midi": 52,
            "name": "E3",
            "velocity": 0.4409448818897638,
            "duration": 1.2763876125000024,
            "ticks": 14400,
            "durationTicks": 919
          },
          {
            "time": 18.999985,
            "midi": 60,
            "name": "C4",
            "velocity": 0.5984251968503937,
            "duration": 0.3208330124999996,
            "ticks": 14640,
            "durationTicks": 231
          },
          {
            "time": 19.333318,
            "midi": 64,
            "name": "E4",
            "velocity": 0.6299212598425197,
            "duration": 0.33194411250000044,
            "ticks": 14880,
            "durationTicks": 239
          },
          {
            "time": 19.666651,
            "midi": 69,
            "name": "A4",
            "velocity": 0.6692913385826772,
            "duration": 0.36805518749999777,
            "ticks": 15120,
            "durationTicks": 265
          },
          {
            "time": 19.999983999999998,
            "midi": 71,
            "name": "B4",
            "velocity": 0.6456692913385826,
            "duration": 0.6319438125000012,
            "ticks": 15360,
            "durationTicks": 455
          },
          {
            "time": 19.999983999999998,
            "midi": 56,
            "name": "G#3",
            "velocity": 0.4094488188976378,
            "duration": 0.6791659875000029,
            "ticks": 15360,
            "durationTicks": 489
          },
          {
            "time": 20.66665,
            "midi": 52,
            "name": "E3",
            "velocity": 0.4645669291338583,
            "duration": 1.2833320499999985,
            "ticks": 15840,
            "durationTicks": 924
          },
          {
            "time": 20.999983,
            "midi": 64,
            "name": "E4",
            "velocity": 0.5984251968503937,
            "duration": 0.3541663124999985,
            "ticks": 16080,
            "durationTicks": 255
          },
          {
            "time": 21.333316,
            "midi": 72,
            "name": "C5",
            "velocity": 0.6692913385826772,
            "duration": 0.31805523749999765,
            "ticks": 16320,
            "durationTicks": 229
          },
          {
            "time": 21.666649,
            "midi": 71,
            "name": "B4",
            "velocity": 0.6062992125984252,
            "duration": 0.3444441000000005,
            "ticks": 16560,
            "durationTicks": 248
          },
          {
            "time": 21.999982,
            "midi": 69,
            "name": "A4",
            "velocity": 0.5748031496062992,
            "duration": 1.1124988874999993,
            "ticks": 16800,
            "durationTicks": 801
          },
          {
            "time": 21.999982,
            "midi": 57,
            "name": "A3",
            "velocity": 0.41732283464566927,
            "duration": 1.2624987374999996,
            "ticks": 16800,
            "durationTicks": 909
          },
          {
            "time": 23.333313999999998,
            "midi": 76,
            "name": "E5",
            "velocity": 0.5275590551181102,
            "duration": 0.2791663875000019,
            "ticks": 17760,
            "durationTicks": 201
          },
          {
            "time": 23.666647,
            "midi": 75,
            "name": "D#5",
            "velocity": 0.5433070866141733,
            "duration": 0.3430552124999977,
            "ticks": 18000,
            "durationTicks": 247
          },
          {
            "time": 23.99998,
            "midi": 76,
            "name": "E5",
            "velocity": 0.6062992125984252,
            "duration": 0.36249963749999736,
            "ticks": 18240,
            "durationTicks": 261
          },
          {
            "time": 24.333313,
            "midi": 75,
            "name": "D#5",
            "velocity": 0.6535433070866141,
            "duration": 0.32361078749999805,
            "ticks": 18480,
            "durationTicks": 233
          },
          {
            "time": 24.666646,
            "midi": 76,
            "name": "E5",
            "velocity": 0.6299212598425197,
            "duration": 0.3791662874999986,
            "ticks": 18720,
            "durationTicks": 273
          },
          {
            "time": 24.999979,
            "midi": 71,
            "name": "B4",
            "velocity": 0.6456692913385826,
            "duration": 0.34305521250000126,
            "ticks": 18960,
            "durationTicks": 247
          },
          {
            "time": 25.333312,
            "midi": 74,
            "name": "D5",
            "velocity": 0.6299212598425197,
            "duration": 0.32499967499999727,
            "ticks": 19200,
            "durationTicks": 234
          },
          {
            "time": 25.666645,
            "midi": 72,
            "name": "C5",
            "velocity": 0.5669291338582677,
            "duration": 0.35694408750000406,
            "ticks": 19440,
            "durationTicks": 257
          },
          {
            "time": 25.999978,
            "midi": 69,
            "name": "A4",
            "velocity": 0.5511811023622047,
            "duration": 0.6638882249999973,
            "ticks": 19680,
            "durationTicks": 478
          },
          {
            "time": 25.999978,
            "midi": 57,
            "name": "A3",
            "velocity": 0.4330708661417323,
            "duration": 0.7402770375000003,
            "ticks": 19680,
            "durationTicks": 533
          },
          {
            "time": 26.666643999999998,
            "midi": 52,
            "name": "E3",
            "velocity": 0.44881889763779526,
            "duration": 1.2680542875,
            "ticks": 20160,
            "durationTicks": 913
          },
          {
            "time": 26.999976999999998,
            "midi": 60,
            "name": "C4",
            "velocity": 0.6299212598425197,
            "duration": 0.36527741249999934,
            "ticks": 20400,
            "durationTicks": 263
          },
          {
            "time": 27.33331,
            "midi": 64,
            "name": "E4",
            "velocity": 0.5826771653543307,
            "duration": 0.30833302499999604,
            "ticks": 20640,
            "durationTicks": 222
          },
          {
            "time": 27.666643,
            "midi": 69,
            "name": "A4",
            "velocity": 0.6141732283464567,
            "duration": 0.3749996249999974,
            "ticks": 20880,
            "durationTicks": 270
          },
          {
            "time": 27.999976,
            "midi": 71,
            "name": "B4",
            "velocity": 0.6771653543307087,
            "duration": 0.6444438000000012,
            "ticks": 21120,
            "durationTicks": 464
          },
          {
            "time": 27.999976,
            "midi": 56,
            "name": "G#3",
            "velocity": 0.3937007874015748,
            "duration": 0.7208326124999971,
            "ticks": 21120,
            "durationTicks": 519
          },
          {
            "time": 28.666642,
            "midi": 52,
            "name": "E3",
            "velocity": 0.47244094488188976,
            "duration": 1.291665375000001,
            "ticks": 21600,
            "durationTicks": 930
          },
          {
            "time": 28.999975,
            "midi": 64,
            "name": "E4",
            "velocity": 0.6377952755905512,
            "duration": 0.34305521250000126,
            "ticks": 21840,
            "durationTicks": 247
          },
          {
            "time": 29.333308,
            "midi": 68,
            "name": "G#4",
            "velocity": 0.6850393700787402,
            "duration": 0.38888850000000375,
            "ticks": 22080,
            "durationTicks": 280
          },
          {
            "time": 29.666641,
            "midi": 71,
            "name": "B4",
            "velocity": 0.7007874015748031,
            "duration": 0.36388852500000013,
            "ticks": 22320,
            "durationTicks": 262
          },
          {
            "time": 29.999973999999998,
            "midi": 72,
            "name": "C5",
            "velocity": 0.7007874015748031,
            "duration": 0.6444438000000012,
            "ticks": 22560,
            "durationTicks": 464
          },
          {
            "time": 29.999973999999998,
            "midi": 57,
            "name": "A3",
            "velocity": 0.4251968503937008,
            "duration": 0.6444438000000012,
            "ticks": 22560,
            "durationTicks": 464
          },
          {
            "time": 30.66664,
            "midi": 52,
            "name": "E3",
            "velocity": 0.4330708661417323,
            "duration": 1.2694431749999993,
            "ticks": 23040,
            "durationTicks": 914
          },
          {
            "time": 30.999973,
            "midi": 64,
            "name": "E4",
            "velocity": 0.6141732283464567,
            "duration": 0.2666663999999983,
            "ticks": 23280,
            "durationTicks": 192
          },
          {
            "time": 31.333306,
            "midi": 76,
            "name": "E5",
            "velocity": 0.5118110236220472,
            "duration": 0.33194411250000044,
            "ticks": 23520,
            "durationTicks": 239
          },
          {
            "time": 31.666639,
            "midi": 75,
            "name": "D#5",
            "velocity": 0.5984251968503937,
            "duration": 0.34305521250000126,
            "ticks": 23760,
            "durationTicks": 247
          },
          {
            "time": 31.999972,
            "midi": 76,
            "name": "E5",
            "velocity": 0.5748031496062992,
            "duration": 0.33611077500000164,
            "ticks": 24000,
            "durationTicks": 242
          },
          {
            "time": 32.333304999999996,
            "midi": 75,
            "name": "D#5",
            "velocity": 0.6220472440944882,
            "duration": 0.387499612500001,
            "ticks": 24240,
            "durationTicks": 279
          },
          {
            "time": 32.666638,
            "midi": 76,
            "name": "E5",
            "velocity": 0.6771653543307087,
            "duration": 0.42361068749999475,
            "ticks": 24480,
            "durationTicks": 305
          },
          {
            "time": 32.999971,
            "midi": 71,
            "name": "B4",
            "velocity": 0.6771653543307087,
            "duration": 0.3527774249999993,
            "ticks": 24720,
            "durationTicks": 254
          },
          {
            "time": 33.333304,
            "midi": 74,
            "name": "D5",
            "velocity": 0.5984251968503937,
            "duration": 0.3111108000000016,
            "ticks": 24960,
            "durationTicks": 224
          },
          {
            "time": 33.666636999999994,
            "midi": 72,
            "name": "C5",
            "velocity": 0.5511811023622047,
            "duration": 0.3888885000000073,
            "ticks": 25200,
            "durationTicks": 280
          },
          {
            "time": 33.99997,
            "midi": 69,
            "name": "A4",
            "velocity": 0.5748031496062992,
            "duration": 0.6486104625000024,
            "ticks": 25440,
            "durationTicks": 467
          },
          {
            "time": 33.99997,
            "midi": 57,
            "name": "A3",
            "velocity": 0.4015748031496063,
            "duration": 0.6458326874999969,
            "ticks": 25440,
            "durationTicks": 465
          },
          {
            "time": 34.666636,
            "midi": 52,
            "name": "E3",
            "velocity": 0.4409448818897638,
            "duration": 1.2791653875000009,
            "ticks": 25920,
            "durationTicks": 921
          },
          {
            "time": 34.999969,
            "midi": 60,
            "name": "C4",
            "velocity": 0.6299212598425197,
            "duration": 0.29999970000000076,
            "ticks": 26160,
            "durationTicks": 216
          },
          {
            "time": 35.333302,
            "midi": 64,
            "name": "E4",
            "velocity": 0.6692913385826772,
            "duration": 0.3236107874999945,
            "ticks": 26400,
            "durationTicks": 233
          },
          {
            "time": 35.666635,
            "midi": 69,
            "name": "A4",
            "velocity": 0.6377952755905512,
            "duration": 0.35555519999999774,
            "ticks": 26640,
            "durationTicks": 256
          },
          {
            "time": 35.999967999999996,
            "midi": 71,
            "name": "B4",
            "velocity": 0.6456692913385826,
            "duration": 0.6180549375000055,
            "ticks": 26880,
            "durationTicks": 445
          },
          {
            "time": 35.999967999999996,
            "midi": 56,
            "name": "G#3",
            "velocity": 0.3937007874015748,
            "duration": 0.6763882125000009,
            "ticks": 26880,
            "durationTicks": 487
          },
          {
            "time": 36.666634,
            "midi": 52,
            "name": "E3",
            "velocity": 0.4409448818897638,
            "duration": 1.3222208999999978,
            "ticks": 27360,
            "durationTicks": 952
          },
          {
            "time": 36.999967,
            "midi": 64,
            "name": "E4",
            "velocity": 0.6614173228346457,
            "duration": 0.36666629999999856,
            "ticks": 27600,
            "durationTicks": 264
          },
          {
            "time": 37.3333,
            "midi": 72,
            "name": "C5",
            "velocity": 0.6456692913385826,
            "duration": 0.3430552124999977,
            "ticks": 27840,
            "durationTicks": 247
          },
          {
            "time": 37.666633,
            "midi": 71,
            "name": "B4",
            "velocity": 0.6692913385826772,
            "duration": 0.3430552125000048,
            "ticks": 28080,
            "durationTicks": 247
          },
          {
            "time": 37.999966,
            "midi": 69,
            "name": "A4",
            "velocity": 0.6141732283464567,
            "duration": 0.7958325374999973,
            "ticks": 28320,
            "durationTicks": 573
          },
          {
            "time": 37.999966,
            "midi": 57,
            "name": "A3",
            "velocity": 0.4094488188976378,
            "duration": 1.3430542125000002,
            "ticks": 28320,
            "durationTicks": 967
          },
          {
            "time": 38.999964999999996,
            "midi": 71,
            "name": "B4",
            "velocity": 0.6377952755905512,
            "duration": 0.39583293750000337,
            "ticks": 29040,
            "durationTicks": 285
          },
          {
            "time": 39.333298,
            "midi": 72,
            "name": "C5",
            "velocity": 0.7007874015748031,
            "duration": 0.38611072500000176,
            "ticks": 29280,
            "durationTicks": 278
          },
          {
            "time": 39.666631,
            "midi": 74,
            "name": "D5",
            "velocity": 0.7401574803149606,
            "duration": 0.37638851249999306,
            "ticks": 29520,
            "durationTicks": 271
          },
          {
            "time": 39.999964,
            "midi": 76,
            "name": "E5",
            "velocity": 0.6929133858267716,
            "duration": 0.7208326124999971,
            "ticks": 29760,
            "durationTicks": 519
          },
          {
            "time": 40.333297,
            "midi": 55,
            "name": "G3",
            "velocity": 0.49606299212598426,
            "duration": 0.3319441124999969,
            "ticks": 30000,
            "durationTicks": 239
          },
          {
            "time": 40.66663,
            "midi": 60,
            "name": "C4",
            "velocity": 0.4881889763779528,
            "duration": 1.3791652875000011,
            "ticks": 30240,
            "durationTicks": 993
          },
          {
            "time": 40.999963,
            "midi": 67,
            "name": "G4",
            "velocity": 0.6456692913385826,
            "duration": 0.3305552249999977,
            "ticks": 30480,
            "durationTicks": 238
          },
          {
            "time": 41.333296,
            "midi": 77,
            "name": "F5",
            "velocity": 0.7322834645669292,
            "duration": 0.38333295000000334,
            "ticks": 30720,
            "durationTicks": 276
          },
          {
            "time": 41.666629,
            "midi": 76,
            "name": "E5",
            "velocity": 0.6850393700787402,
            "duration": 0.3611107499999946,
            "ticks": 30960,
            "durationTicks": 260
          },
          {
            "time": 41.999962,
            "midi": 74,
            "name": "D5",
            "velocity": 0.7007874015748031,
            "duration": 0.6763882125000009,
            "ticks": 31200,
            "durationTicks": 487
          },
          {
            "time": 42.333295,
            "midi": 55,
            "name": "G3",
            "velocity": 0.49606299212598426,
            "duration": 0.33611077500000164,
            "ticks": 31440,
            "durationTicks": 242
          },
          {
            "time": 42.666627999999996,
            "midi": 59,
            "name": "B3",
            "velocity": 0.5590551181102362,
            "duration": 1.4847207375000053,
            "ticks": 31680,
            "durationTicks": 1069
          },
          {
            "time": 42.999961,
            "midi": 65,
            "name": "F4",
            "velocity": 0.6299212598425197,
            "duration": 0.331944112500004,
            "ticks": 31920,
            "durationTicks": 239
          },
          {
            "time": 43.333294,
            "midi": 76,
            "name": "E5",
            "velocity": 0.6771653543307087,
            "duration": 0.3986107125000018,
            "ticks": 32160,
            "durationTicks": 287
          },
          {
            "time": 43.666627,
            "midi": 74,
            "name": "D5",
            "velocity": 0.7244094488188977,
            "duration": 0.4083329249999963,
            "ticks": 32400,
            "durationTicks": 294
          },
          {
            "time": 43.99996,
            "midi": 72,
            "name": "C5",
            "velocity": 0.7244094488188977,
            "duration": 0.6236104874999953,
            "ticks": 32640,
            "durationTicks": 449
          },
          {
            "time": 44.333293,
            "midi": 57,
            "name": "A3",
            "velocity": 0.5039370078740157,
            "duration": 0.3402774374999993,
            "ticks": 32880,
            "durationTicks": 245
          },
          {
            "time": 44.666626,
            "midi": 60,
            "name": "C4",
            "velocity": 0.5511811023622047,
            "duration": 1.3249986749999962,
            "ticks": 33120,
            "durationTicks": 954
          },
          {
            "time": 44.999959,
            "midi": 64,
            "name": "E4",
            "velocity": 0.6456692913385826,
            "duration": 0.36388852500000013,
            "ticks": 33360,
            "durationTicks": 262
          },
          {
            "time": 45.333292,
            "midi": 74,
            "name": "D5",
            "velocity": 0.6929133858267716,
            "duration": 0.4069440374999971,
            "ticks": 33600,
            "durationTicks": 293
          },
          {
            "time": 45.666624999999996,
            "midi": 72,
            "name": "C5",
            "velocity": 0.7401574803149606,
            "duration": 0.42083291250000343,
            "ticks": 33840,
            "durationTicks": 303
          },
          {
            "time": 45.999958,
            "midi": 71,
            "name": "B4",
            "velocity": 0.6771653543307087,
            "duration": 0.708332624999997,
            "ticks": 34080,
            "durationTicks": 510
          },
          {
            "time": 45.999958,
            "midi": 52,
            "name": "E3",
            "velocity": 0.4881889763779528,
            "duration": 1.987498012499998,
            "ticks": 34080,
            "durationTicks": 1431
          },
          {
            "time": 45.999958,
            "midi": 56,
            "name": "G#3",
            "velocity": 0.49606299212598426,
            "duration": 2.062497937499998,
            "ticks": 34080,
            "durationTicks": 1485
          },
          {
            "time": 46.666624,
            "midi": 64,
            "name": "E4",
            "velocity": 0.5984251968503937,
            "duration": 0.1430554125000043,
            "ticks": 34560,
            "durationTicks": 103
          },
          {
            "time": 46.999957,
            "midi": 64,
            "name": "E4",
            "velocity": 0.6535433070866141,
            "duration": 0.29166637499999837,
            "ticks": 34800,
            "durationTicks": 210
          },
          {
            "time": 47.33329,
            "midi": 76,
            "name": "E5",
            "velocity": 0.5590551181102362,
            "duration": 0.536110574999995,
            "ticks": 35040,
            "durationTicks": 386
          },
          {
            "time": 47.999956,
            "midi": 76,
            "name": "E5",
            "velocity": 0.6535433070866141,
            "duration": 0.19305536250000443,
            "ticks": 35520,
            "durationTicks": 139
          },
          {
            "time": 48.333289,
            "midi": 76,
            "name": "E5",
            "velocity": 0.6062992125984252,
            "duration": 0.3124996875000008,
            "ticks": 35760,
            "durationTicks": 225
          },
          {
            "time": 48.666622,
            "midi": 88,
            "name": "E6",
            "velocity": 0.5826771653543307,
            "duration": 0.536110574999995,
            "ticks": 36000,
            "durationTicks": 386
          },
          {
            "time": 48.999955,
            "midi": 75,
            "name": "D#5",
            "velocity": 0.5196850393700787,
            "duration": 0.3874996124999939,
            "ticks": 36240,
            "durationTicks": 279
          },
          {
            "time": 49.333287999999996,
            "midi": 76,
            "name": "E5",
            "velocity": 0.49606299212598426,
            "duration": 0.30972191250000236,
            "ticks": 36480,
            "durationTicks": 223
          },
          {
            "time": 49.666621,
            "midi": 75,
            "name": "D#5",
            "velocity": 0.4409448818897638,
            "duration": 0.47222174999999567,
            "ticks": 36720,
            "durationTicks": 340
          },
          {
            "time": 49.999953999999995,
            "midi": 76,
            "name": "E5",
            "velocity": 0.4881889763779528,
            "duration": 0.37499962500000095,
            "ticks": 36960,
            "durationTicks": 270
          },
          {
            "time": 50.333287,
            "midi": 75,
            "name": "D#5",
            "velocity": 0.4881889763779528,
            "duration": 0.3430552124999977,
            "ticks": 37200,
            "durationTicks": 247
          },
          {
            "time": 50.66662,
            "midi": 76,
            "name": "E5",
            "velocity": 0.5275590551181102,
            "duration": 0.3124996874999937,
            "ticks": 37440,
            "durationTicks": 225
          },
          {
            "time": 50.999953,
            "midi": 75,
            "name": "D#5",
            "velocity": 0.5669291338582677,
            "duration": 0.3236107875000016,
            "ticks": 37680,
            "durationTicks": 233
          },
          {
            "time": 51.333286,
            "midi": 76,
            "name": "E5",
            "velocity": 0.5590551181102362,
            "duration": 0.36666629999999856,
            "ticks": 37920,
            "durationTicks": 264
          },
          {
            "time": 51.666619,
            "midi": 75,
            "name": "D#5",
            "velocity": 0.6220472440944882,
            "duration": 0.344444100000004,
            "ticks": 38160,
            "durationTicks": 248
          },
          {
            "time": 51.999952,
            "midi": 76,
            "name": "E5",
            "velocity": 0.5826771653543307,
            "duration": 0.3319441124999969,
            "ticks": 38400,
            "durationTicks": 239
          },
          {
            "time": 52.333285,
            "midi": 75,
            "name": "D#5",
            "velocity": 0.5433070866141733,
            "duration": 0.35694408749999695,
            "ticks": 38640,
            "durationTicks": 257
          },
          {
            "time": 52.666618,
            "midi": 76,
            "name": "E5",
            "velocity": 0.5669291338582677,
            "duration": 0.4069440374999971,
            "ticks": 38880,
            "durationTicks": 293
          },
          {
            "time": 52.999950999999996,
            "midi": 71,
            "name": "B4",
            "velocity": 0.5511811023622047,
            "duration": 0.30833302500000315,
            "ticks": 39120,
            "durationTicks": 222
          },
          {
            "time": 53.333284,
            "midi": 74,
            "name": "D5",
            "velocity": 0.5748031496062992,
            "duration": 0.3111108000000016,
            "ticks": 39360,
            "durationTicks": 224
          },
          {
            "time": 53.666616999999995,
            "midi": 72,
            "name": "C5",
            "velocity": 0.5669291338582677,
            "duration": 0.39583293750000337,
            "ticks": 39600,
            "durationTicks": 285
          },
          {
            "time": 53.99995,
            "midi": 69,
            "name": "A4",
            "velocity": 0.5905511811023622,
            "duration": 0.6124993875000015,
            "ticks": 39840,
            "durationTicks": 441
          },
          {
            "time": 53.99995,
            "midi": 57,
            "name": "A3",
            "velocity": 0.4094488188976378,
            "duration": 0.6749993250000017,
            "ticks": 39840,
            "durationTicks": 486
          },
          {
            "time": 54.666616,
            "midi": 52,
            "name": "E3",
            "velocity": 0.4094488188976378,
            "duration": 1.2555543000000071,
            "ticks": 40320,
            "durationTicks": 904
          },
          {
            "time": 54.999949,
            "midi": 60,
            "name": "C4",
            "velocity": 0.5354330708661418,
            "duration": 0.3319441124999969,
            "ticks": 40560,
            "durationTicks": 239
          },
          {
            "time": 55.333282,
            "midi": 64,
            "name": "E4",
            "velocity": 0.6377952755905512,
            "duration": 0.3430552125000048,
            "ticks": 40800,
            "durationTicks": 247
          },
          {
            "time": 55.666615,
            "midi": 69,
            "name": "A4",
            "velocity": 0.6377952755905512,
            "duration": 0.3513885375000001,
            "ticks": 41040,
            "durationTicks": 253
          },
          {
            "time": 55.999947999999996,
            "midi": 71,
            "name": "B4",
            "velocity": 0.6377952755905512,
            "duration": 0.6555549000000056,
            "ticks": 41280,
            "durationTicks": 472
          },
          {
            "time": 55.999947999999996,
            "midi": 56,
            "name": "G#3",
            "velocity": 0.4330708661417323,
            "duration": 0.7069437375000049,
            "ticks": 41280,
            "durationTicks": 509
          },
          {
            "time": 56.666613999999996,
            "midi": 52,
            "name": "E3",
            "velocity": 0.44881889763779526,
            "duration": 1.279165387500008,
            "ticks": 41760,
            "durationTicks": 921
          },
          {
            "time": 56.999947,
            "midi": 64,
            "name": "E4",
            "velocity": 0.5905511811023622,
            "duration": 0.35555519999999774,
            "ticks": 42000,
            "durationTicks": 256
          },
          {
            "time": 57.33328,
            "midi": 68,
            "name": "G#4",
            "velocity": 0.6299212598425197,
            "duration": 0.36666629999999145,
            "ticks": 42240,
            "durationTicks": 264
          },
          {
            "time": 57.666613,
            "midi": 71,
            "name": "B4",
            "velocity": 0.6377952755905512,
            "duration": 0.387499612500001,
            "ticks": 42480,
            "durationTicks": 279
          },
          {
            "time": 57.999946,
            "midi": 72,
            "name": "C5",
            "velocity": 0.6377952755905512,
            "duration": 0.6041660624999992,
            "ticks": 42720,
            "durationTicks": 435
          },
          {
            "time": 57.999946,
            "midi": 57,
            "name": "A3",
            "velocity": 0.4330708661417323,
            "duration": 0.6333326999999969,
            "ticks": 42720,
            "durationTicks": 456
          },
          {
            "time": 58.666612,
            "midi": 52,
            "name": "E3",
            "velocity": 0.4645669291338583,
            "duration": 1.244443199999992,
            "ticks": 43200,
            "durationTicks": 896
          },
          {
            "time": 58.999945,
            "midi": 64,
            "name": "E4",
            "velocity": 0.6692913385826772,
            "duration": 0.26111085000000145,
            "ticks": 43440,
            "durationTicks": 188
          },
          {
            "time": 59.333278,
            "midi": 76,
            "name": "E5",
            "velocity": 0.5511811023622047,
            "duration": 0.3319441124999969,
            "ticks": 43680,
            "durationTicks": 239
          },
          {
            "time": 59.666610999999996,
            "midi": 75,
            "name": "D#5",
            "velocity": 0.5196850393700787,
            "duration": 0.3236107875000016,
            "ticks": 43920,
            "durationTicks": 233
          },
          {
            "time": 59.999944,
            "midi": 76,
            "name": "E5",
            "velocity": 0.5669291338582677,
            "duration": 0.3430552124999977,
            "ticks": 44160,
            "durationTicks": 247
          },
          {
            "time": 60.333276999999995,
            "midi": 75,
            "name": "D#5",
            "velocity": 0.6141732283464567,
            "duration": 0.3430552125000048,
            "ticks": 44400,
            "durationTicks": 247
          },
          {
            "time": 60.66661,
            "midi": 76,
            "name": "E5",
            "velocity": 0.6929133858267716,
            "duration": 0.38333295000000334,
            "ticks": 44640,
            "durationTicks": 276
          },
          {
            "time": 60.999943,
            "midi": 71,
            "name": "B4",
            "velocity": 0.6614173228346457,
            "duration": 0.3513885375000001,
            "ticks": 44880,
            "durationTicks": 253
          },
          {
            "time": 61.333276,
            "midi": 74,
            "name": "D5",
            "velocity": 0.6299212598425197,
            "duration": 0.3444440999999969,
            "ticks": 45120,
            "durationTicks": 248
          },
          {
            "time": 61.666609,
            "midi": 72,
            "name": "C5",
            "velocity": 0.5984251968503937,
            "duration": 0.3541663124999985,
            "ticks": 45360,
            "durationTicks": 255
          },
          {
            "time": 61.999942,
            "midi": 69,
            "name": "A4",
            "velocity": 0.5826771653543307,
            "duration": 0.6430549125000056,
            "ticks": 45600,
            "durationTicks": 463
          },
          {
            "time": 61.999942,
            "midi": 57,
            "name": "A3",
            "velocity": 0.4330708661417323,
            "duration": 0.6638882250000009,
            "ticks": 45600,
            "durationTicks": 478
          },
          {
            "time": 62.666608,
            "midi": 52,
            "name": "E3",
            "velocity": 0.44881889763779526,
            "duration": 1.280554275,
            "ticks": 46080,
            "durationTicks": 922
          },
          {
            "time": 62.999941,
            "midi": 60,
            "name": "C4",
            "velocity": 0.6377952755905512,
            "duration": 0.37499962500000095,
            "ticks": 46320,
            "durationTicks": 270
          },
          {
            "time": 63.333273999999996,
            "midi": 64,
            "name": "E4",
            "velocity": 0.6062992125984252,
            "duration": 0.30833302500000315,
            "ticks": 46560,
            "durationTicks": 222
          },
          {
            "time": 63.666607,
            "midi": 69,
            "name": "A4",
            "velocity": 0.6692913385826772,
            "duration": 0.3680551875000049,
            "ticks": 46800,
            "durationTicks": 265
          },
          {
            "time": 63.999939999999995,
            "midi": 71,
            "name": "B4",
            "velocity": 0.6850393700787402,
            "duration": 0.6513882375000009,
            "ticks": 47040,
            "durationTicks": 469
          },
          {
            "time": 63.999939999999995,
            "midi": 56,
            "name": "G#3",
            "velocity": 0.4015748031496063,
            "duration": 0.7083326250000113,
            "ticks": 47040,
            "durationTicks": 510
          },
          {
            "time": 64.666606,
            "midi": 52,
            "name": "E3",
            "velocity": 0.4409448818897638,
            "duration": 0.7847214374999965,
            "ticks": 47520,
            "durationTicks": 565
          },
          {
            "time": 64.999939,
            "midi": 62,
            "name": "D4",
            "velocity": 0.6141732283464567,
            "duration": 0.3208330125000032,
            "ticks": 47760,
            "durationTicks": 231
          },
          {
            "time": 65.333272,
            "midi": 72,
            "name": "C5",
            "velocity": 0.5511811023622047,
            "duration": 0.344444100000004,
            "ticks": 48000,
            "durationTicks": 248
          },
          {
            "time": 65.666605,
            "midi": 71,
            "name": "B4",
            "velocity": 0.6062992125984252,
            "duration": 0.4402773374999924,
            "ticks": 48240,
            "durationTicks": 317
          },
          {
            "time": 65.999938,
            "midi": 69,
            "name": "A4",
            "velocity": 0.5354330708661418,
            "duration": 3.9166627500000004,
            "ticks": 48480,
            "durationTicks": 2820
          },
          {
            "time": 65.999938,
            "midi": 60,
            "name": "C4",
            "velocity": 0.5196850393700787,
            "duration": 3.8916627750000004,
            "ticks": 48480,
            "durationTicks": 2802
          },
          {
            "time": 65.999938,
            "midi": 45,
            "name": "A2",
            "velocity": 0.3937007874015748,
            "duration": 3.9166627500000004,
            "ticks": 48480,
            "durationTicks": 2820
          },
          {
            "time": 65.999938,
            "midi": 52,
            "name": "E3",
            "velocity": 0.33070866141732286,
            "duration": 3.8916627750000004,
            "ticks": 48480,
            "durationTicks": 2802
          }
        ],
        "controlChanges": {
          "0": [
            {
              "number": 0,
              "value": 0,
              "time": 2,
              "ticks": 1920
            },
            {
              "number": 0,
              "value": 0,
              "time": 2,
              "ticks": 1920
            },
            {
              "number": 0,
              "value": 1,
              "time": 2,
              "ticks": 1920
            }
          ],
          "7": [
            {
              "number": 7,
              "value": 0.9448818897637795,
              "time": 2.015625,
              "ticks": 1935
            },
            {
              "number": 7,
              "value": 0.9448818897637795,
              "time": 2.015625,
              "ticks": 1935
            },
            {
              "number": 7,
              "value": 0.7874015748031497,
              "time": 2.015625,
              "ticks": 1935
            }
          ],
          "10": [
            {
              "number": 10,
              "value": 0.5039370078740157,
              "time": 2.0260416666666665,
              "ticks": 1945
            },
            {
              "number": 10,
              "value": 0.5039370078740157,
              "time": 2.0260416666666665,
              "ticks": 1945
            },
            {
              "number": 10,
              "value": 0.5039370078740157,
              "time": 2.0260416666666665,
              "ticks": 1945
            }
          ],
          "11": [
            {
              "number": 11,
              "value": 1,
              "time": 2.0208333333333335,
              "ticks": 1940
            },
            {
              "number": 11,
              "value": 1,
              "time": 2.0208333333333335,
              "ticks": 1940
            },
            {
              "number": 11,
              "value": 1,
              "time": 2.0208333333333335,
              "ticks": 1940
            }
          ],
          "32": [
            {
              "number": 32,
              "value": 0,
              "time": 2.0052083333333335,
              "ticks": 1925
            },
            {
              "number": 32,
              "value": 0,
              "time": 2.0052083333333335,
              "ticks": 1925
            },
            {
              "number": 32,
              "value": 0,
              "time": 2.0052083333333335,
              "ticks": 1925
            }
          ],
          "91": [
            {
              "number": 91,
              "value": 0.31496062992125984,
              "time": 2.03125,
              "ticks": 1950
            },
            {
              "number": 91,
              "value": 0.31496062992125984,
              "time": 2.03125,
              "ticks": 1950
            },
            {
              "number": 91,
              "value": 0.31496062992125984,
              "time": 2.03125,
              "ticks": 1950
            }
          ],
          "93": [
            {
              "number": 93,
              "value": 0,
              "time": 2.0364583333333335,
              "ticks": 1955
            },
            {
              "number": 93,
              "value": 0,
              "time": 2.0364583333333335,
              "ticks": 1955
            },
            {
              "number": 93,
              "value": 0,
              "time": 2.0364583333333335,
              "ticks": 1955
            }
          ],
          "94": [
            {
              "number": 94,
              "value": 0,
              "time": 2.0416666666666665,
              "ticks": 1960
            },
            {
              "number": 94,
              "value": 0,
              "time": 2.0416666666666665,
              "ticks": 1960
            },
            {
              "number": 94,
              "value": 0,
              "time": 2.0416666666666665,
              "ticks": 1960
            }
          ]
        }
      }
    ]
  }